PathFileType	4	(X/Y/Z)	DARI_DATA/Captury_Subj5_bilateral_squat03.trc
DataRate	CameraRate	NumFrames	NumMarkers	Units	OrigDataRate	OrigDataStartFrame	OrigNumFrames
60	60	4	47	mm	59.99879837036133	1	236
Frame#	Time		LeftUpLeg_		RightUpLeg_		LeftLeg_		RightLeg_		LeftFoot_		RightFoot_		LeftToeBase_		RightToeBase_		Knee_Lateral_r		Knee_Lateral_l		Ankle_Lateral_r		Ankle_Lateral_l		LeftArm_		LeftForeArm_		LeftHand_		LeftHandEE		RightArm_		RightForeArm_		RightHand_		RightHandEE		Spine_		Spine1_		Spine2_		Spine3_		Spine4_		Spine5_		Spine_x		Spine_y		Spine_z		RASI		LASI		RIPS		LIPS		RTHI		LTHI		RTIB		LTIB		RTOE		LTOE		RHEE		LHEE		RHipAngles		LHipAngles		RKneeAngles		LKneeAngles		RAnkleAngles		LAnkleAngles
			X1	Y1	Z1	X2	Y2	Z2	X3	Y3	Z3	X4	Y4	Z4	X5	Y5	Z5	X6	Y6	Z6	X7	Y7	Z7	X8	Y8	Z8	X9	Y9	Z9	X10	Y10	Z10	X11	Y11	Z11	X12	Y12	Z12	X13	Y13	Z13	X14	Y14	Z14	X15	Y15	Z15	X16	Y16	Z16	X17	Y17	Z17	X18	Y18	Z18	X19	Y19	Z19	X20	Y20	Z20	X21	Y21	Z21	X22	Y22	Z22	X23	Y23	Z23	X24	Y24	Z24	X25	Y25	Z25	X26	Y26	Z26	X27	Y27	Z27	X28	Y28	Z28	X29	Y29	Z29	X30	Y30	Z30	X31	Y31	Z31	X32	Y32	Z32	X33	Y33	Z33	X34	Y34	Z34	X35	Y35	Z35	X36	Y36	Z36	X37	Y37	Z37	X38	Y38	Z38	X39	Y39	Z39	X40	Y40	Z40	X41	Y41	Z41	X42	Y42	Z42	X43	Y43	Z43	X44	Y44	Z44	X45	Y45	Z45	X46	Y46	Z46	X47	Y47	Z47

1	0.00000	-95.74008	-131.37141	21.95697	95.74008	-131.37141	21.95697	-119.49522	-596.84375	14.68062	119.49522	-596.84375	14.68062	-142.75560	-1025.60669	51.55423	142.75560	-1025.60669	51.55423	-142.75560	-1076.96643	-84.85725	142.75560	-1076.96643	-84.85725	172.99777	-596.84375	14.68062	-172.99777	-596.84375	14.68062	196.35095	-1025.60669	72.99237	-196.35095	-1025.60669	72.99237	-147.13298	462.93884	6.81318	-482.28387	447.64200	30.73588	-769.98987	427.75989	51.27203	-874.98828	420.50391	58.76621	147.13298	462.93884	6.81318	482.28387	447.64200	30.73588	769.98987	427.75989	51.27203	874.98828	420.50391	58.76621	0.00000	-26.28716	43.11559	0.00000	94.00552	21.63476	0.00000	185.19165	31.40854	0.00000	294.31430	63.84460	0.00000	455.85016	47.30436	1663134.00000	0.00000	1663136.00000	53.70209	-26.28716	43.11559	0.00000	27.41492	43.11559	0.00000	-26.28716	96.81768	161.10626	-58.50842	-85.76942	-161.10626	-58.50842	-85.76942	42.96167	-58.50842	75.33685	-42.96167	-58.50842	75.33685	181.66342	-346.17975	21.95697	-181.66342	-346.17975	21.95697	173.09056	-789.78705	14.68062	-173.09056	-854.10144	14.68062	142.75560	-1076.96643	-167.03284	-142.75560	-1076.96643	-167.03284	142.75560	-1100.64014	105.14959	-142.75560	-1100.64014	105.14959	-0.00000	-0.00000	-0.00000	-0.00000	0.00000	0.00000	0.00000	-0.00000	-0.00000	0.00000	0.00000	0.00000	-0.00000	-0.00000	-0.00000	-0.00000	0.00000	0.00000
2	0.01667	-93.94762	975.53485	71.07109	97.38277	978.92670	64.29942	-144.68013	514.42755	25.37604	149.22984	518.61499	12.27235	-187.93817	88.39966	74.03062	185.24036	91.04199	52.55777	-212.54468	37.27471	-60.23283	195.19931	37.74834	-82.74382	202.58586	521.56555	14.90969	-197.95581	517.12476	29.49349	237.62807	93.21594	76.70029	-239.61362	91.44840	99.57297	-146.32536	1569.75024	94.75993	-238.34421	1591.89758	-228.00073	-253.02982	1620.49780	-515.33008	-207.33508	1619.17859	-610.42853	157.50008	1556.29053	89.67259	243.70038	1573.16003	-235.00783	218.61847	1598.42871	-521.92969	251.24225	1615.72278	-620.77338	0.45531	1083.00818	85.00400	-1.78083	1198.78552	68.32384	-2.42917	1283.48767	85.62204	-3.42991	1382.01526	131.72145	-2.22711	1538.83826	141.32707	1663134.00000	0.00000	1663136.00000	54.11539	1083.95947	83.10483	-0.56488	1136.66516	83.05556	2.31837	1084.99121	138.63710	157.57632	1048.90857	-48.24390	-164.38419	1043.20093	-36.84889	45.11333	1052.76477	116.83359	-40.74281	1051.24268	119.87225	195.91866	770.29327	47.32223	-191.76035	766.21570	59.08768	209.33031	327.63492	16.03071	-211.84015	260.57925	35.60189	200.54922	11.44179	-160.41087	-226.50809	10.14171	-136.53259	189.37419	17.12625	107.52925	-179.26309	13.27908	126.79549	-7.87557	2.62560	4.59609	-7.35439	4.10603	2.02064	-6.03891	-1.18640	0.09316	-6.31191	0.28293	0.05521	0.67023	-0.57197	2.92263	-0.88656	5.45294	-2.59017
3	0.03333	-92.69305	976.62115	69.51675	98.65239	980.34949	63.37883	-145.38406	515.49506	26.29429	148.53612	519.62622	13.10395	-187.46619	89.18213	73.46194	185.26575	92.01224	52.29057	-211.93835	37.60773	-60.65413	195.94786	37.77042	-82.57841	201.89803	522.34351	15.86932	-198.65796	518.45538	30.25056	237.62097	94.42491	76.48077	-239.22031	92.11691	98.85789	-147.40196	1569.44641	94.90748	-240.30243	1591.83606	-227.58380	-253.51086	1620.43250	-514.98517	-208.40125	1618.21802	-610.34601	157.60980	1556.87146	86.82819	244.17041	1572.86011	-237.80093	219.16344	1598.72754	-524.67609	249.21252	1614.34961	-624.60846	1.48370	1084.21509	84.03639	-0.89882	1199.51233	67.75436	-1.74136	1283.60132	85.37116	-2.98489	1381.36084	131.88995	-2.26983	1537.60278	142.25131	1663134.00000	0.00000	1663136.00000	55.14801	1085.26074	82.31496	0.37998	1137.87524	82.22369	3.16849	1086.06189	137.68027	159.09535	1050.72363	-48.78555	-162.89046	1044.44971	-38.45699	46.08825	1053.96362	115.93319	-39.77463	1052.29053	118.68747	196.28032	771.21167	47.39041	-191.41751	767.67987	58.45090	208.97012	328.74304	16.41029	-211.78697	261.40894	35.51030	201.72240	11.01202	-160.06049	-225.82059	10.31301	-136.91101	188.75935	18.45525	107.78520	-179.29662	14.24480	126.56702	-7.50840	2.25365	4.58746	-6.90707	4.47822	2.02714	-5.66293	-0.84278	0.01579	-5.83912	-0.19004	0.05646	1.23267	-0.27153	2.63755	-0.54569	5.44491	-2.10713
4	0.05000	-91.85394	977.61713	68.17069	99.49711	981.54358	62.33636	-145.25867	516.39905	26.84648	148.67618	520.54822	13.89560	-187.02484	89.95129	73.06720	185.15704	92.82449	52.10406	-212.14746	37.57745	-60.61809	196.31718	37.13292	-82.13386	202.04004	523.18976	16.69664	-198.52243	519.45038	30.86962	237.51714	95.42771	76.26400	-238.74977	92.96866	98.51294	-148.41127	1569.07434	95.44955	-242.00838	1591.65649	-226.82675	-253.78871	1620.27600	-514.28796	-209.78424	1617.64832	-610.15332	157.59549	1557.78271	83.86335	244.83627	1572.48499	-240.64441	219.98679	1598.62500	-527.50842	246.88741	1614.11694	-628.35400	2.19787	1085.26147	83.12115	-0.27349	1200.18774	67.25274	-1.20516	1283.76831	85.20289	-2.49796	1380.86060	132.16269	-2.12156	1536.62109	143.30743	1663134.00000	0.00000	1663136.00000	55.86374	1086.36267	81.48487	1.04577	1138.92517	81.44959	3.79871	1086.96704	136.77226	160.04474	1052.27356	-49.54742	-161.95047	1045.66638	-39.72972	46.78234	1054.96753	115.00573	-39.08306	1053.20557	117.62379	196.79919	772.18738	47.24545	-190.88905	768.77368	58.07529	208.99167	329.62018	16.74203	-211.48982	262.24945	35.53432	202.40024	9.61880	-159.32712	-226.38100	9.88246	-136.66559	187.62637	19.80495	108.35829	-179.56102	15.35368	126.75128	-7.12574	2.09044	4.55705	-6.54237	4.64015	2.19346	-5.30575	-0.80433	-0.04618	-5.48938	-0.33410	0.03939	1.97563	0.10877	2.20739	-0.07838	5.42793	-1.44546
